<svg xmlns="http://www.w3.org/2000/svg" version="1.1" xmlns:xlink="http://www.w3.org/1999/xlink" xmlns:svgjs="http://svgjs.dev/svgjs" viewBox="0 0 800 800"><defs><linearGradient x1="50%" y1="0%" x2="50%" y2="100%" id="nnneon-grad"><stop stop-color="rgb(0, 138, 184)" stop-opacity="1" offset="0%"></stop><stop stop-color="rgb(246, 109, 55)" stop-opacity="1" offset="100%"></stop></linearGradient><filter id="nnneon-filter" x="-100%" y="-100%" width="400%" height="400%" filterUnits="objectBoundingBox" primitiveUnits="userSpaceOnUse" color-interpolation-filters="sRGB">
	<feGaussianBlur stdDeviation="17 8" x="0%" y="0%" width="100%" height="100%" in="SourceGraphic" edgeMode="none" result="blur"></feGaussianBlur></filter><filter id="nnneon-filter2" x="-100%" y="-100%" width="400%" height="400%" filterUnits="objectBoundingBox" primitiveUnits="userSpaceOnUse" color-interpolation-filters="sRGB">
	<feGaussianBlur stdDeviation="10 17" x="0%" y="0%" width="100%" height="100%" in="SourceGraphic" edgeMode="none" result="blur"></feGaussianBlur></filter></defs><g stroke-width="16" stroke="url(#nnneon-grad)" fill="none"><path d="M400 231.41397094726562L546.0000093293058 315.70699271486274V484.29303625005696L400 568.5860580176541L253.99999067069422 484.29303625005696V315.70699271486274L400 231.41397094726562Z " filter="url(#nnneon-filter)"></path><path d="M412 231.41397094726562L558.0000093293058 315.70699271486274V484.29303625005696L412 568.5860580176541L265.9999906706942 484.29303625005696V315.70699271486274L412 231.41397094726562Z " filter="url(#nnneon-filter2)" opacity="0.25"></path><path d="M388 231.41397094726562L534.0000093293058 315.70699271486274V484.29303625005696L388 568.5860580176541L241.99999067069422 484.29303625005696V315.70699271486274L388 231.41397094726562Z " filter="url(#nnneon-filter2)" opacity="0.25"></path><path d="M400 231.41397094726562L546.0000093293058 315.70699271486274V484.29303625005696L400 568.5860580176541L253.99999067069422 484.29303625005696V315.70699271486274L400 231.41397094726562Z "></path></g></svg>