<svg xmlns="http://www.w3.org/2000/svg" version="1.1" xmlns:xlink="http://www.w3.org/1999/xlink" xmlns:svgjs="http://svgjs.dev/svgjs" viewBox="0 0 1422 500"><defs><linearGradient x1="50%" y1="0%" x2="50%" y2="100%" id="oooscillate-grad"><stop stop-color="hsl(206, 69%, 44%, 0.5)" stop-opacity="1" offset="0%"></stop><stop stop-color="hsl(202, 90%, 73%, 0.5)" stop-opacity="1" offset="100%"></stop></linearGradient></defs><g stroke-width="2" stroke="url(#oooscillate-grad)" fill="none" stroke-linecap="round"><path d="M 0 432 Q 355.5 290 711 400 Q 1066.5 510 1422 432" opacity="0.09"></path><path d="M 0 426 Q 355.5 290 711 400 Q 1066.5 510 1422 426" opacity="0.07"></path><path d="M 0 420 Q 355.5 290 711 400 Q 1066.5 510 1422 420" opacity="0.55"></path><path d="M 0 414 Q 355.5 290 711 400 Q 1066.5 510 1422 414" opacity="0.37"></path><path d="M 0 408 Q 355.5 290 711 400 Q 1066.5 510 1422 408" opacity="0.52"></path><path d="M 0 402 Q 355.5 290 711 400 Q 1066.5 510 1422 402" opacity="0.59"></path><path d="M 0 396 Q 355.5 290 711 400 Q 1066.5 510 1422 396" opacity="0.20"></path><path d="M 0 390 Q 355.5 290 711 400 Q 1066.5 510 1422 390" opacity="0.90"></path><path d="M 0 384 Q 355.5 290 711 400 Q 1066.5 510 1422 384" opacity="0.80"></path><path d="M 0 378 Q 355.5 290 711 400 Q 1066.5 510 1422 378" opacity="0.46"></path><path d="M 0 372 Q 355.5 290 711 400 Q 1066.5 510 1422 372" opacity="0.92"></path><path d="M 0 366 Q 355.5 290 711 400 Q 1066.5 510 1422 366" opacity="0.70"></path><path d="M 0 360 Q 355.5 290 711 400 Q 1066.5 510 1422 360" opacity="0.97"></path><path d="M 0 354 Q 355.5 290 711 400 Q 1066.5 510 1422 354" opacity="0.81"></path><path d="M 0 348 Q 355.5 290 711 400 Q 1066.5 510 1422 348" opacity="0.85"></path><path d="M 0 342 Q 355.5 290 711 400 Q 1066.5 510 1422 342" opacity="0.15"></path><path d="M 0 336 Q 355.5 290 711 400 Q 1066.5 510 1422 336" opacity="0.37"></path><path d="M 0 330 Q 355.5 290 711 400 Q 1066.5 510 1422 330" opacity="0.82"></path><path d="M 0 324 Q 355.5 290 711 400 Q 1066.5 510 1422 324" opacity="0.30"></path><path d="M 0 318 Q 355.5 290 711 400 Q 1066.5 510 1422 318" opacity="0.88"></path><path d="M 0 312 Q 355.5 290 711 400 Q 1066.5 510 1422 312" opacity="0.58"></path><path d="M 0 306 Q 355.5 290 711 400 Q 1066.5 510 1422 306" opacity="0.74"></path><path d="M 0 300 Q 355.5 290 711 400 Q 1066.5 510 1422 300" opacity="0.65"></path><path d="M 0 294 Q 355.5 290 711 400 Q 1066.5 510 1422 294" opacity="0.28"></path><path d="M 0 288 Q 355.5 290 711 400 Q 1066.5 510 1422 288" opacity="0.94"></path><path d="M 0 282 Q 355.5 290 711 400 Q 1066.5 510 1422 282" opacity="0.61"></path><path d="M 0 276 Q 355.5 290 711 400 Q 1066.5 510 1422 276" opacity="0.81"></path><path d="M 0 270 Q 355.5 290 711 400 Q 1066.5 510 1422 270" opacity="0.97"></path><path d="M 0 264 Q 355.5 290 711 400 Q 1066.5 510 1422 264" opacity="0.52"></path><path d="M 0 258 Q 355.5 290 711 400 Q 1066.5 510 1422 258" opacity="0.83"></path><path d="M 0 252 Q 355.5 290 711 400 Q 1066.5 510 1422 252" opacity="0.87"></path><path d="M 0 246 Q 355.5 290 711 400 Q 1066.5 510 1422 246" opacity="0.40"></path><path d="M 0 240 Q 355.5 290 711 400 Q 1066.5 510 1422 240" opacity="0.21"></path><path d="M 0 234 Q 355.5 290 711 400 Q 1066.5 510 1422 234" opacity="0.22"></path><path d="M 0 228 Q 355.5 290 711 400 Q 1066.5 510 1422 228" opacity="0.70"></path><path d="M 0 222 Q 355.5 290 711 400 Q 1066.5 510 1422 222" opacity="0.73"></path><path d="M 0 216 Q 355.5 290 711 400 Q 1066.5 510 1422 216" opacity="0.45"></path><path d="M 0 210 Q 355.5 290 711 400 Q 1066.5 510 1422 210" opacity="0.73"></path><path d="M 0 204 Q 355.5 290 711 400 Q 1066.5 510 1422 204" opacity="0.22"></path><path d="M 0 198 Q 355.5 290 711 400 Q 1066.5 510 1422 198" opacity="0.17"></path><path d="M 0 192 Q 355.5 290 711 400 Q 1066.5 510 1422 192" opacity="0.44"></path><path d="M 0 186 Q 355.5 290 711 400 Q 1066.5 510 1422 186" opacity="0.58"></path><path d="M 0 180 Q 355.5 290 711 400 Q 1066.5 510 1422 180" opacity="0.99"></path><path d="M 0 174 Q 355.5 290 711 400 Q 1066.5 510 1422 174" opacity="0.56"></path><path d="M 0 168 Q 355.5 290 711 400 Q 1066.5 510 1422 168" opacity="0.33"></path><path d="M 0 162 Q 355.5 290 711 400 Q 1066.5 510 1422 162" opacity="0.09"></path><path d="M 0 156 Q 355.5 290 711 400 Q 1066.5 510 1422 156" opacity="0.37"></path><path d="M 0 150 Q 355.5 290 711 400 Q 1066.5 510 1422 150" opacity="0.79"></path><path d="M 0 144 Q 355.5 290 711 400 Q 1066.5 510 1422 144" opacity="0.35"></path><path d="M 0 138 Q 355.5 290 711 400 Q 1066.5 510 1422 138" opacity="0.90"></path><path d="M 0 132 Q 355.5 290 711 400 Q 1066.5 510 1422 132" opacity="0.86"></path><path d="M 0 126 Q 355.5 290 711 400 Q 1066.5 510 1422 126" opacity="0.72"></path><path d="M 0 120 Q 355.5 290 711 400 Q 1066.5 510 1422 120" opacity="0.47"></path><path d="M 0 114 Q 355.5 290 711 400 Q 1066.5 510 1422 114" opacity="0.22"></path><path d="M 0 108 Q 355.5 290 711 400 Q 1066.5 510 1422 108" opacity="0.68"></path><path d="M 0 102 Q 355.5 290 711 400 Q 1066.5 510 1422 102" opacity="0.16"></path><path d="M 0 96 Q 355.5 290 711 400 Q 1066.5 510 1422 96" opacity="0.47"></path><path d="M 0 90 Q 355.5 290 711 400 Q 1066.5 510 1422 90" opacity="0.71"></path><path d="M 0 84 Q 355.5 290 711 400 Q 1066.5 510 1422 84" opacity="0.94"></path><path d="M 0 78 Q 355.5 290 711 400 Q 1066.5 510 1422 78" opacity="0.32"></path><path d="M 0 72 Q 355.5 290 711 400 Q 1066.5 510 1422 72" opacity="0.19"></path><path d="M 0 66 Q 355.5 290 711 400 Q 1066.5 510 1422 66" opacity="0.75"></path><path d="M 0 60 Q 355.5 290 711 400 Q 1066.5 510 1422 60" opacity="0.20"></path><path d="M 0 54 Q 355.5 290 711 400 Q 1066.5 510 1422 54" opacity="0.92"></path><path d="M 0 48 Q 355.5 290 711 400 Q 1066.5 510 1422 48" opacity="0.54"></path><path d="M 0 42 Q 355.5 290 711 400 Q 1066.5 510 1422 42" opacity="0.47"></path><path d="M 0 36 Q 355.5 290 711 400 Q 1066.5 510 1422 36" opacity="0.76"></path><path d="M 0 30 Q 355.5 290 711 400 Q 1066.5 510 1422 30" opacity="0.73"></path><path d="M 0 24 Q 355.5 290 711 400 Q 1066.5 510 1422 24" opacity="0.72"></path><path d="M 0 18 Q 355.5 290 711 400 Q 1066.5 510 1422 18" opacity="0.26"></path><path d="M 0 12 Q 355.5 290 711 400 Q 1066.5 510 1422 12" opacity="0.44"></path></g></svg>